# xmcd
#
# Track frame offsets:
#	150
#	12675
#	25380
#	41547
#	55725
#	72000
#	84445
#	96467
#	109285
#	126992
#
# Disc length: 1848 seconds
#
# Revision: 2
# Processed by: cddbd v1.5.2PL0 Copyright (c) Steve Scherf et al.
# Submitted via: EZCDAudioConverter 6.0.2.1
#
DISCID=8807360a
DTITLE=Merle Haggard - The Legendary Merle Haggard
DYEAR=1996
DGENRE=Country
TTITLE0=If We Make it Through December
TTITLE1=I'm Always on a Mountain When I Fall
TTITLE2=It's Not Love (But It's Not Bad)
TTITLE3=Always Wanting You
TTITLE4=It's all in the Movies
TTITLE5=The Bottle Let Me Down
TTITLE6=Things Aren't Funny Anymore
TTITLE7=It's Been a Great Afternoon
TTITLE8=I Think I'll Just Stay Here and Drink
TTITLE9=From Graceland to the Promised Land
EXTD=
EXTT0=
EXTT1=
EXTT2=
EXTT3=
EXTT4=
EXTT5=
EXTT6=
EXTT7=
EXTT8=
EXTT9=
PLAYORDER=
